<?xml version="1.0" encoding="iso-8859-1"?>

<!DOCTYPE svg PUBLIC "-//W3C//DTD SVG 1.1//EN" "http://www.w3.org/Graphics/SVG/1.1/DTD/svg11.dtd">
<!-- Uploaded to: SVG Repo, www.svgrepo.com, Generator: SVG Repo Mixer Tools -->
<svg height="800px" width="800px" version="1.1" id="_x34_" xmlns="http://www.w3.org/2000/svg" xmlns:xlink="http://www.w3.org/1999/xlink" 
	 viewBox="0 0 512 512"  xml:space="preserve">
<g>
	<g>
		<path style="fill:#E8D4C0;" d="M186.206,221.265c0,46.993-38.103,85.099-85.1,85.099c-47.003,0-85.1-38.107-85.1-85.099
			c0-46.993,38.097-85.096,85.1-85.096C148.103,136.169,186.206,174.272,186.206,221.265z"/>
		<path style="fill:#FFFFFF;" d="M186.206,221.265c0,46.993-38.103,85.099-85.1,85.099c-47.003,0-85.1-38.107-85.1-85.099
			c0-46.993,38.097-85.096,85.1-85.096C148.103,136.169,186.206,174.272,186.206,221.265z"/>
		<path style="fill:#727171;" d="M201.705,211.263c-2.341-23.929-13.07-45.452-29.131-61.513
			c-6.307-6.307-13.525-11.834-21.458-16.321c-5.722-3.316-11.769-6.047-18.207-8.128c-9.948-3.316-20.677-5.137-31.796-5.137
			c-27.895,0-53.255,11.379-71.461,29.586C11.379,168.022,0,193.382,0,221.277c0,16.646,4.097,32.447,11.315,46.297
			c4.812,9.363,10.989,17.817,18.337,25.164c7.347,7.348,15.801,13.59,25.164,18.402c13.85,7.153,29.651,11.249,46.297,11.184
			c27.895,0.065,53.255-11.314,71.462-29.586c16.061-15.996,26.79-37.649,29.131-61.513c0.325-3.251,0.455-6.567,0.455-9.949
			C202.16,217.895,202.03,214.579,201.705,211.263z M170.234,221.277c0,3.381-0.26,6.698-0.715,9.949
			c-2.146,15.086-9.233,28.546-19.572,38.884c-12.55,12.55-29.716,20.223-48.833,20.288c-19.117-0.065-36.348-7.738-48.898-20.288
			c-12.485-12.55-20.222-29.716-20.222-48.833s7.738-36.348,20.222-48.898c12.55-12.485,29.781-20.222,48.898-20.222
			c6.437,0,12.679,0.91,18.597,2.536c6.502,1.821,12.615,4.552,18.207,8.128c4.357,2.731,8.387,5.917,12.029,9.558
			c10.339,10.339,17.361,23.799,19.572,38.884C169.974,214.514,170.234,217.895,170.234,221.277z"/>
	</g>
	<path style="fill:#E8D4C0;" d="M483.876,218.271c0,40.291-32.658,72.956-72.962,72.956c-40.279,0-72.936-32.665-72.936-72.956
		c0-40.294,32.658-72.962,72.936-72.962C451.217,145.309,483.876,177.977,483.876,218.271z"/>
	<g>
		<path style="fill:#FFFFFF;" d="M496.017,218.271c0,46.994-38.094,85.094-85.103,85.094c-46.984,0-85.097-38.1-85.097-85.094
			c0-46.999,38.113-85.103,85.097-85.103C457.923,133.168,496.017,171.271,496.017,218.271z"/>
		<path style="fill:#E8E4E2;" d="M162.591,221.265c0,33.957-27.524,61.483-61.484,61.483c-33.956,0-61.487-27.527-61.487-61.483
			c0-33.954,27.53-61.484,61.487-61.484C135.067,159.781,162.591,187.312,162.591,221.265z"/>
		<path style="fill:#E8E4E2;" d="M472.407,218.271c0,33.95-27.534,61.478-61.493,61.478c-33.954,0-61.469-27.527-61.469-61.478
			c0-33.959,27.515-61.487,61.469-61.487C444.874,156.784,472.407,184.311,472.407,218.271z"/>
		<path style="fill:#727171;" d="M482.413,146.759c-18.271-18.272-43.63-29.586-71.526-29.586c-11.834,0-23.278,2.016-33.877,5.852
			c-6.307,2.211-12.355,5.072-18.012,8.518c-7.153,4.227-13.72,9.364-19.572,15.216c-18.207,18.272-29.586,43.631-29.586,71.527
			c0,27.83,11.379,53.19,29.586,71.461c18.272,18.272,43.631,29.586,71.461,29.586c27.896,0,53.255-11.314,71.526-29.586
			C500.685,271.475,512,246.116,512,218.286C512,190.39,500.685,165.031,482.413,146.759z M410.887,287.406
			c-19.117-0.065-36.283-7.738-48.832-20.287c-12.55-12.55-20.223-29.716-20.223-48.833c0-19.182,7.672-36.349,20.223-48.898
			c3.251-3.251,6.892-6.242,10.794-8.843c5.526-3.641,11.574-6.502,18.077-8.453c6.307-1.886,13.005-2.926,19.962-2.926
			c19.183,0,36.349,7.738,48.899,20.223c12.55,12.55,20.223,29.716,20.223,48.898c0,19.117-7.673,36.283-20.223,48.833
			C447.236,279.668,430.07,287.341,410.887,287.406z"/>
	</g>
	<path style="fill:#E17B80;" d="M421.942,216.985l-27.635-57.871l-3.381-7.023l-1.626-3.446l-5.332-11.054v-0.065l-6.958-14.5
		L328.827,22.043L322,7.803c-1.691-3.641-5.267-5.722-9.038-5.722c-1.431,0-2.926,0.325-4.292,0.975
		c-4.942,2.406-7.088,8.388-4.682,13.33l2.667,5.657l17.817,37.324H174.72l-10.989-23.019l-0.065-0.13l-13.59-28.416
		c-2.341-5.007-8.323-7.088-13.33-4.747c-4.942,2.406-7.088,8.388-4.682,13.33l10.729,22.498l5.917,12.29l9.038,18.987
		l-14.956,33.227l-9.884,21.913l-6.567,14.695l-6.632,14.695l-3.186,7.023L92.465,215.23c-0.26,0.52-0.455,1.17-0.585,1.756
		l-0.52,1.951c-0.716,2.926,0,6.112,1.886,8.518c1.886,2.406,4.812,3.771,7.868,3.771h139.932c0.65,0,1.366-0.065,2.016-0.195h0.065
		c0.78-0.195,1.431-0.455,2.146-0.78c0.194-0.065,0.39-0.195,0.65-0.325c0.52-0.26,0.975-0.585,1.366-0.975
		c0.195-0.13,0.39-0.26,0.52-0.39c0.585-0.585,1.105-1.17,1.561-1.821l0.065-0.065l89.018-138.111l20.548,42.981l6.957,14.5v0.065
		l5.267,10.989l1.626,3.446l3.381,7.023l27.7,58.002c2.341,5.007,8.323,7.088,13.33,4.682
		C422.202,227.909,424.348,221.927,421.942,216.985z M116.134,211.263l18.662-41.42l3.121-7.023l6.632-14.696l6.567-14.695
		l6.762-14.956l11.119-24.709l32.902,68.73l23.279,48.768H116.134z M303.987,105.079l-6.697,10.469l-54.945,85.247l-9.819-20.483
		L184.279,79.329h136.355L303.987,105.079z"/>
	<polygon style="fill:#727171;" points="208.663,0 208.273,30.951 163.731,36.348 142.794,38.884 98.057,44.281 97.667,0 	"/>
	<g>
		<path style="fill:#C3C4C4;" d="M342.938,2.081v19.962h-36.283c-14.695,0-25.684,0-25.684,0V2.081c0,0,3.056,0,8.128,0H342.938z"/>
		<path style="fill:#727171;" d="M398.468,44.542c0,5.137-0.78,10.274-2.536,15.151c-1.756,4.877-4.487,9.493-8.323,13.33
			l-14.111-14.175c1.431-1.431,2.732-3.446,3.577-5.917c0.91-2.471,1.431-5.397,1.431-8.388c0-4.422-1.105-8.973-2.992-12.615
			c-1.95-3.641-4.616-6.372-7.867-8.063c-2.277-1.105-4.877-1.756-8.323-1.821h-16.386V2.081h16.386
			c3.836,0,7.543,0.52,10.989,1.561c2.211,0.585,4.227,1.365,6.177,2.341c5.072,2.471,9.233,6.047,12.485,10.209
			c3.121,3.966,5.462,8.453,6.958,13.07C397.688,34.203,398.468,39.405,398.468,44.542z"/>
	</g>
</g>
</svg>