<?xml version="1.0" encoding="iso-8859-1"?>
<!-- Uploaded to: SVG Repo, www.svgrepo.com, Generator: SVG Repo Mixer Tools -->
<svg height="800px" width="800px" version="1.1" id="Layer_1" xmlns="http://www.w3.org/2000/svg" xmlns:xlink="http://www.w3.org/1999/xlink" 
	 viewBox="0 0 512 512" xml:space="preserve">
<g transform="translate(0 1)">
	<g>
		<path style="fill:#FFE100;" d="M93.867,169.667c0-5.12-3.413-8.533-8.533-8.533s-8.533,3.413-8.533,8.533
			c0,5.12,3.413,8.533,8.533,8.533S93.867,174.787,93.867,169.667"/>
		<path style="fill:#FFE100;" d="M264.533,220.867c-61.44,0-110.933-49.493-110.933-110.933S203.093-1,264.533-1
			s110.933,49.493,110.933,110.933S325.973,220.867,264.533,220.867z M264.533,16.067c-52.053,0-93.867,41.813-93.867,93.867
			S212.48,203.8,264.533,203.8s93.867-41.813,93.867-93.867S316.587,16.067,264.533,16.067z"/>
		<path style="fill:#FFE100;" d="M59.733,323.267c-5.12,0-8.533-3.413-8.533-8.533c0-41.813,5.12-83.627,16.213-122.027
			c0.853-4.267,5.973-6.827,10.24-5.973c4.267,0.853,6.827,5.973,5.973,10.24c-10.24,37.547-15.36,76.8-15.36,117.76
			C68.267,319.853,64,323.267,59.733,323.267z"/>
		<path style="fill:#FFE100;" d="M469.333,323.267c-5.12,0-8.533-3.413-8.533-8.533c0-164.693-87.893-298.667-196.267-298.667
			c-65.707,0-126.293,49.493-162.987,132.267c-1.707,4.267-6.827,5.973-11.093,4.267c-4.267-1.707-5.973-6.827-4.267-11.093
			C125.44,51.907,192-1,264.533-1c117.76,0,213.333,141.653,213.333,315.733C477.867,319.853,473.6,323.267,469.333,323.267z"/>
		<path style="fill:#FFE100;" d="M76.8,348.867H42.667c-9.387,0-17.067-7.68-17.067-17.067s7.68-17.067,17.067-17.067H76.8
			c9.387,0,17.067,7.68,17.067,17.067S86.187,348.867,76.8,348.867"/>
	</g>
	<path style="fill:#FFFFFF;" d="M25.6,331.8c0-9.387,7.68-17.067,17.067-17.067H25.6c-9.387,0-17.067,7.68-17.067,17.067
		s7.68,17.067,17.067,17.067h17.067C33.28,348.867,25.6,341.187,25.6,331.8"/>
	<path style="fill:#FFE100;" d="M59.733,502.467H42.667c-9.387,0-17.067-7.68-17.067-17.067V348.867h51.2V485.4
		C76.8,494.787,69.12,502.467,59.733,502.467"/>
	<polygon style="fill:#FDCC00;" points="42.667,459.8 76.8,459.8 76.8,391.533 42.667,391.533 	"/>
	<polygon style="fill:#FFFFFF;" points="25.6,502.467 42.667,502.467 42.667,348.867 25.6,348.867 	"/>
	<path style="fill:#FFE100;" d="M435.2,348.867h34.133c9.387,0,17.067-7.68,17.067-17.067s-7.68-17.067-17.067-17.067H435.2
		c-9.387,0-17.067,7.68-17.067,17.067S425.813,348.867,435.2,348.867"/>
	<path style="fill:#FFA800;" d="M486.4,331.8c0-9.387-7.68-17.067-17.067-17.067H486.4c9.387,0,17.067,7.68,17.067,17.067
		s-7.68,17.067-17.067,17.067h-17.067C478.72,348.867,486.4,341.187,486.4,331.8"/>
	<path style="fill:#FFE100;" d="M452.267,502.467h17.067c9.387,0,17.067-7.68,17.067-17.067V348.867h-51.2V485.4
		C435.2,494.787,442.88,502.467,452.267,502.467"/>
	<polygon style="fill:#FDCC00;" points="435.2,459.8 469.333,459.8 469.333,391.533 435.2,391.533 	"/>
	<polygon style="fill:#FFA800;" points="469.333,502.467 486.4,502.467 486.4,348.867 469.333,348.867 	"/>
	<path style="fill:#FFE100;" d="M503.467,348.867v142.507c0,5.973-5.12,11.093-11.093,11.093H486.4v-153.6H503.467z"/>
	<path d="M59.733,511H42.667c-13.653,0-25.6-11.093-25.6-25.6V348.867c0-2.56,0.853-4.267,2.56-5.973s3.413-2.56,5.973-2.56h51.2
		c2.56,0,4.267,0.853,5.973,2.56s2.56,3.413,2.56,5.973V485.4C85.333,499.907,73.387,511,59.733,511z M34.133,357.4v128
		c0,4.267,3.413,8.533,8.533,8.533h17.067c4.267,0,8.533-3.413,8.533-8.533v-128H34.133z"/>
	<path d="M469.333,511h-17.067c-13.653,0-25.6-11.093-25.6-25.6V348.867c0-2.56,0.853-4.267,2.56-5.973s3.413-2.56,5.973-2.56h51.2
		c2.56,0,4.267,0.853,5.973,2.56c1.707,1.707,2.56,3.413,2.56,5.973V485.4C494.933,499.907,482.987,511,469.333,511z M443.733,357.4
		v128c0,4.267,3.413,8.533,8.533,8.533h17.067c4.267,0,8.533-3.413,8.533-8.533v-128H443.733z"/>
	<path d="M76.8,357.4H25.6C11.093,357.4,0,346.307,0,331.8s11.093-25.6,25.6-25.6h51.2c14.507,0,25.6,11.093,25.6,25.6
		S90.453,357.4,76.8,357.4z M25.6,323.267c-5.12,0-8.533,3.413-8.533,8.533s3.413,8.533,8.533,8.533h51.2
		c5.12,0,8.533-3.413,8.533-8.533s-3.413-8.533-8.533-8.533H25.6z"/>
	<path d="M486.4,357.4h-51.2c-14.507,0-25.6-11.093-25.6-25.6s11.093-25.6,25.6-25.6h51.2c14.507,0,25.6,11.093,25.6,25.6
		S500.053,357.4,486.4,357.4z M435.2,323.267c-5.12,0-8.533,3.413-8.533,8.533s3.413,8.533,8.533,8.533h51.2
		c5.12,0,8.533-3.413,8.533-8.533s-3.413-8.533-8.533-8.533H435.2z"/>
	<path d="M256,220.867c-61.44,0-110.933-49.493-110.933-110.933S194.56-1,256-1s110.933,49.493,110.933,110.933
		S317.44,220.867,256,220.867z M256,16.067c-52.053,0-93.867,41.813-93.867,93.867S203.947,203.8,256,203.8
		s93.867-41.813,93.867-93.867S308.053,16.067,256,16.067z"/>
	<path d="M51.2,323.267c-5.12,0-8.533-3.413-8.533-8.533c0-41.813,5.12-83.627,16.213-122.027c0.853-4.267,5.973-6.827,10.24-5.973
		c4.267,0.853,6.827,5.973,5.973,10.24c-10.24,37.547-15.36,76.8-15.36,117.76C59.733,319.853,55.467,323.267,51.2,323.267z"/>
	<path d="M460.8,323.267c-5.12,0-8.533-3.413-8.533-8.533c0-164.693-87.893-298.667-196.267-298.667
		c-65.707,0-126.293,49.493-162.987,132.267c-1.707,4.267-6.827,5.973-11.093,4.267c-4.267-1.707-5.973-6.827-4.267-11.093
		C116.907,51.907,183.467-1,256-1c117.76,0,213.333,141.653,213.333,315.733C469.333,319.853,465.067,323.267,460.8,323.267z"/>
	<path d="M85.333,169.667c0-5.12-3.413-8.533-8.533-8.533s-8.533,3.413-8.533,8.533c0,5.12,3.413,8.533,8.533,8.533
		S85.333,174.787,85.333,169.667"/>
	<path d="M76.8,468.333H25.6c-5.12,0-8.533-3.413-8.533-8.533v-68.267c0-5.12,3.413-8.533,8.533-8.533h51.2
		c5.12,0,8.533,3.413,8.533,8.533V459.8C85.333,464.92,81.067,468.333,76.8,468.333z M34.133,451.267h34.133v-51.2H34.133V451.267z"
		/>
	<path d="M486.4,468.333h-51.2c-5.12,0-8.533-3.413-8.533-8.533v-68.267c0-5.12,3.413-8.533,8.533-8.533h51.2
		c5.12,0,8.533,3.413,8.533,8.533V459.8C494.933,464.92,490.667,468.333,486.4,468.333z M443.733,451.267h34.133v-51.2h-34.133
		V451.267z"/>
</g>
</svg>