<?xml version="1.0" encoding="iso-8859-1"?>
<!-- Uploaded to: SVG Repo, www.svgrepo.com, Generator: SVG Repo Mixer Tools -->
<svg version="1.1" id="Layer_1" xmlns="http://www.w3.org/2000/svg" xmlns:xlink="http://www.w3.org/1999/xlink" 
	 viewBox="0 0 512 512" xml:space="preserve">
<g>
	<path style="fill:#57545C;" d="M32.042,493.195H4.869c-2.69,0-4.869-2.18-4.869-4.869v-33.657h36.911v33.657
		C36.911,491.015,34.731,493.195,32.042,493.195z"/>
	<path style="fill:#57545C;" d="M507.131,493.195h-27.173c-2.69,0-4.869-2.18-4.869-4.869v-33.657H512v33.657
		C512,491.015,509.82,493.195,507.131,493.195z"/>
</g>
<path style="fill:#3E3B43;" d="M375.831,435.51H65.54c-31.99,0-58.162-26.173-58.162-58.162v-3.38
	c0-31.99,26.173-58.162,58.162-58.162h310.291c31.99,0,58.162,26.173,58.162,58.162v3.38
	C433.993,409.338,407.819,435.51,375.831,435.51z"/>
<path style="fill:#1D1D20;" d="M433.993,373.486v3.38c0,31.99-26.173,58.162-58.162,58.162H65.54
	c-31.99,0-58.162-26.173-58.162-58.162v-3.38H433.993z"/>
<path style="fill:#ACAAB1;" d="M367.806,400.354H80.533c-13.199,0-23.998-10.799-23.998-23.998v-1.395
	c0-13.199,10.799-23.998,23.998-23.998h287.273c13.199,0,23.998,10.799,23.998,23.998v1.395
	C391.804,389.555,381.005,400.354,367.806,400.354z"/>
<g>
	<circle style="fill:#57545C;" cx="103.34" cy="375.662" r="19.65"/>
	<circle style="fill:#57545C;" cx="161.656" cy="375.662" r="19.65"/>
	<circle style="fill:#57545C;" cx="222.772" cy="375.662" r="19.65"/>
	<circle style="fill:#57545C;" cx="283.878" cy="375.662" r="19.65"/>
	<circle style="fill:#57545C;" cx="344.994" cy="375.662" r="19.65"/>
</g>
<g>
	<rect y="435.012" style="fill:#3E3B43;" width="512" height="30.106"/>
	<polygon style="fill:#3E3B43;" points="445.781,465.117 478.89,115.386 512,90.117 512,465.117 	"/>
</g>
<polygon style="fill:#1D1D20;" points="512,90.117 478.89,115.386 473.721,169.979 512,169.979 "/>
<path style="fill:#FF3F62;" d="M464.738,92.879V24.832c0-3.329,2.698-6.027,6.027-6.027h35.208c3.329,0,6.027,2.698,6.027,6.027
	v35.374L464.738,92.879z"/>
<path style="fill:#52A2E7;" d="M416.086,129.462V88.066c0-1.718,1.393-3.111,3.111-3.111h19.077c1.718,0,3.111,1.393,3.111,3.111
	v23.906L416.086,129.462z"/>
<path style="fill:#57545C;" d="M512,97.784l-133.779,95.327c-2.136,1.522-5.129,0.308-5.603-2.272l-5.998-32.719
	c-0.249-1.354,0.302-2.731,1.415-3.542L512,49.757V97.784z"/>
</svg>